<?xml version="1.0" encoding="UTF-8"?>
<!DOCTYPE svg PUBLIC "-//W3C//DTD SVG 1.1//EN" "http://www.w3.org/Graphics/SVG/1.1/DTD/svg11.dtd">
<!-- Creator: CorelDRAW 2020 (64-Bit) -->
<svg xmlns="http://www.w3.org/2000/svg" xml:space="preserve" width="73.2028mm" height="74.5785mm" version="1.1" style="shape-rendering:geometricPrecision; text-rendering:geometricPrecision; image-rendering:optimizeQuality; fill-rule:evenodd; clip-rule:evenodd"
viewBox="0 0 7306.05 7443.35"
 xmlns:xlink="http://www.w3.org/1999/xlink"
 xmlns:xodm="http://www.corel.com/coreldraw/odm/2003">
 <defs>
  <style type="text/css">
   <![CDATA[
    .fil5 {fill:#1C1B1A}
    .fil6 {fill:url(#id0)}
    .fil2 {fill:url(#id1)}
    .fil4 {fill:url(#id2)}
    .fil0 {fill:url(#id3)}
    .fil3 {fill:url(#id4)}
    .fil1 {fill:url(#id5)}
   ]]>
  </style>
  <linearGradient id="id0" gradientUnits="userSpaceOnUse" x1="2011.45" y1="4978.93" x2="5295.58" y2="4978.87">
   <stop offset="0" style="stop-opacity:1; stop-color:#135CA8"/>
   <stop offset="0.509804" style="stop-opacity:1; stop-color:#17B7EC"/>
   <stop offset="1" style="stop-opacity:1; stop-color:#135CA8"/>
  </linearGradient>
  <linearGradient id="id1" gradientUnits="userSpaceOnUse" x1="528.36" y1="2295.16" x2="6761.13" y2="2295.11">
   <stop offset="0" style="stop-opacity:1; stop-color:#086028"/>
   <stop offset="0.501961" style="stop-opacity:1; stop-color:#28A946"/>
   <stop offset="1" style="stop-opacity:1; stop-color:#086028"/>
  </linearGradient>
  <linearGradient id="id2" gradientUnits="userSpaceOnUse" x1="3106.2" y1="4555.17" x2="3106.24" y2="3266.24">
   <stop offset="0" style="stop-opacity:1; stop-color:#086028"/>
   <stop offset="1" style="stop-opacity:1; stop-color:#28A946"/>
  </linearGradient>
  <linearGradient id="id3" gradientUnits="userSpaceOnUse" x1="2029.08" y1="2295.15" x2="5198.43" y2="2295.1">
   <stop offset="0" style="stop-opacity:1; stop-color:#135CA8"/>
   <stop offset="0.529412" style="stop-opacity:1; stop-color:#17B7EC"/>
   <stop offset="1" style="stop-opacity:1; stop-color:#135CA8"/>
  </linearGradient>
  <linearGradient id="id4" gradientUnits="userSpaceOnUse" xlink:href="#id2" x1="3106.19" y1="4555.17" x2="3106.24" y2="3266.25">
  </linearGradient>
  <linearGradient id="id5" gradientUnits="userSpaceOnUse" x1="943.34" y1="4934.81" x2="6487.5" y2="4934.81">
   <stop offset="0" style="stop-opacity:1; stop-color:#1C1B1A"/>
   <stop offset="0.470588" style="stop-opacity:1; stop-color:#9B9C9C"/>
   <stop offset="1" style="stop-opacity:1; stop-color:#1C1B1A"/>
  </linearGradient>
 </defs>
 <g id="Layer_x0020_1">
  <metadata id="CorelCorpID_0Corel-Layer"/>
  <g id="_2258074292448">
   <path class="fil0" d="M4213.49 1769.49c-211.34,-83.38 -628.52,-123.54 -946.55,-132.65 -129.32,2.19 -73.11,-56.64 -11.47,-64.79 197.21,-38.73 425.3,-51.7 651.42,-32.11 150.04,13 480.31,82.92 658.14,222.95 101.92,80.24 104.74,152.19 92.99,213.4 -24.29,126.53 -210.05,207.36 -407.26,221.32 -218.18,15.43 -447.2,6.77 -665.62,-4.52 -187.41,-9.68 -374.61,-23.58 -561.67,-38.71 -118.47,-9.58 -239.26,-22.03 -357.84,-27.71 -262.34,-14.52 -442.28,295.78 52.25,297.6 148,0.49 297.43,-7.54 445.29,-14.29 1909.64,-87.26 2146.41,81.34 2375.95,438.94l-739.63 0c-438.75,-187.95 -1180.74,-225.74 -1625.65,-205.42 -151.72,6.94 -304.86,15.03 -456.72,14.53 -101.19,-0.33 -230.88,-3.29 -326.94,-36.56 -131.55,-45.55 -236.31,-146.26 -253.76,-288.9 -15.12,-123.59 41.42,-240.49 134.86,-319.47 112.14,-94.82 261.75,-126.85 405.56,-119.95 121.17,5.82 244.42,18.41 365.48,28.21 184.8,14.94 369.73,28.7 554.9,38.27 190.42,9.84 469.2,17.02 659.71,8.29 105.79,-4.85 132.13,-27.51 140.58,-49.13 14.97,-38.37 -33.32,-89.84 -184.02,-149.3z"/>
   <path class="fil1" d="M7207.24 4808.81c-465.1,1525.03 -1882.99,2634.54 -3560.17,2634.54 -1677.18,0 -3095.04,-1109.51 -3560.16,-2634.54l1433.84 0c395.53,772.08 1199.22,1300.49 2126.33,1300.49 927.12,0 1730.83,-528.41 2126.36,-1300.49l1433.82 0zm-6245.07 1031.54l135.23 -92.95 -51.65 -75.11 78.99 -62.43 43.45 19.77 -94.31 281.65 1.08 71.79 184.98 234.07 135.22 -92.94 -84.57 -110.92 86.98 -322.23 239.57 3.9 94.97 110.41 127.52 -100.75 -227.09 -287.37 -110.37 87.23 4.31 7.42 -183.17 0.98 -48.26 -37.6 118 -93.24 43.69 39.65 110.37 -87.22 -233.09 -294.98 -125.72 85.43 46.53 74.51 -357.78 282.74 -60.8 -63.26 -120.72 109.33 246.63 312.1zm1331.51 582.86c-70.17,120.52 -172.26,187.38 -282.31,123.32 -109.01,-63.47 -98.1,-183.42 -27.93,-303.95 69.55,-119.49 158.21,-163.29 264.07,-101.67 106.91,62.25 115.73,162.8 46.17,282.3zm216.95 126.29c123.26,-211.71 74.44,-426.77 -169.76,-568.94 -243.15,-141.56 -450.07,-75.39 -573.33,136.32 -123.87,212.75 -92.68,448.44 150.48,589.99 244.2,142.18 468.75,55.39 592.62,-157.37zm577.42 -89.41l16.85 -150.66 -363.98 -40.7 -27.83 150.65 72.58 16.67 120.75 644.4 250.7 28.04 188.62 -475.58 4.83 0.55 84.95 506.16 249.49 27.9 254.47 -606.11 53.72 -0.09 16.84 -150.68 -345.91 -38.67 -28.9 160.31 81.01 17.59 -115.15 331.26 -6.03 -0.68 -81.59 -525.33 -247.07 -27.63 -182.9 500.63 -4.82 -0.55 -51.71 -366.98 61.06 -0.51zm1372.5 -36.93l139.48 224.59 -153.24 41.96 9.09 -265.27 4.67 -1.28zm70.83 603.02l-26.63 -138.57 -69.76 11.56 5.26 -54.25 244.47 -66.93 37.08 52.71 -52.75 23.24 34.27 125.16 352.08 -96.42 -29.84 -150.26 -72.94 13.69 -375.63 -549.75 -302.96 82.98 -47.18 654.21 -71.77 27.2 53.46 153.85 322.83 -88.41zm1394.98 -732.32l-138.19 -209.93 -146.53 93.4 38.3 77.17 -123.43 90.06 -259.51 -355.62 59.65 -54.02 -95.8 -131.28 -321.31 234.47 80.53 128.91 76.26 -43.64 268.8 368.35 -65.54 58.34 104.62 124.84 522.17 -381.04zm229.04 -1144.38l-203.11 -145.5 -110.46 172.98 -269.78 376.64 116.89 97.15 58.75 -65.34 370.7 265.52 -43.93 75.95 138.47 85.75 390.53 -545.23 -187.17 -148.99 -109.86 134.64 50.68 54.2 -103.11 143.94 -109.44 -78.39 170.19 -237.61 -140 -100.28 -169.21 238.33 -104.51 -74.85 93.21 -130.15 53.11 32.07 108.06 -150.84z"/>
   <path class="fil2" d="M3647.07 0c1756.37,0 3228.33,1216.74 3619.55,2853.23l-1394.84 0c-347.39,-889.23 -1212.44,-1519.18 -2224.71,-1519.18 -1012.24,0 -1877.29,629.95 -2224.68,1519.18l-1394.86 0c391.23,-1636.49 1863.19,-2853.23 3619.54,-2853.23zm-2570.56 1677.64l-130.36 -84.31 -246.94 381.92 -120.47 166.19 203.87 144.81 100.1 -154.78 -48 -39.69 92.86 -143.6 178.77 563.31 130.37 84.3 376.68 -582.53 -194.04 -139.93 -103.33 139.71 53.2 51.73 -112.61 174.15 -180.1 -561.28zm1004.79 -94.29l-91.94 -122.53 -73.47 54.14 -299.77 -345.24 54.87 -58.89 -106.54 -122.71 -300.37 260.82 91.16 121.61 72.3 -49.91 298.98 344.3 -60.36 63.67 114.79 115.54 300.35 -260.81zm560 -916.55l-103.7 -227.28 -181.95 94.99 -421.47 192.32 53 142.45 83.47 -27.42 189.28 414.85 -75.91 43.96 77.4 143.32 610.14 -278.4 -88.14 -222.39 -162.31 62.06 16.97 72.24 -161.09 73.5 -55.88 -122.47 265.91 -121.32 -71.49 -156.67 -265.39 122.43 -53.38 -116.95 145.64 -66.46 30.1 54.25 168.8 -77.02zm1105.66 385.53l-6.97 -251.23 -173.75 2.28 -8.05 85.75 -152.38 11.6 -33.4 -438.95 79.16 -14.55 -12.33 -162.04 -396.64 30.19 0.63 151.99 87.79 3.04 34.61 454.68 -86.41 15.11 23.21 161.2 644.53 -49.06zm884.43 -239.42c-38.68,134 -121.39,223.71 -243.75,188.39 -121.17,-34.98 -139.84,-153.99 -101.14,-287.99 38.36,-132.82 113.68,-196.92 231.35,-162.93 118.86,34.31 151.9,129.71 113.54,262.53zm241.19 69.64c67.97,-235.37 -31.76,-432.05 -303.25,-510.45 -270.31,-78.05 -454.88,36.54 -522.84,271.91 -68.31,236.52 19.36,457.5 289.68,535.55 271.5,78.41 468.12,-60.48 536.42,-297.01zm764.79 1008.65l376.46 -489.22 66.7 40.6 99.1 -128.8 -297.95 -229.27 -106.8 122.89 67.88 62.93 -133.13 173.01 -38.83 60.39 -3.83 -2.94 30.17 -558.28 -258.54 -198.96 -101.1 113.49 63.3 60.94 -278.11 361.39 -74.37 -46.52 -90.46 135.45 296.99 228.53 107.76 -122.12 -69.79 -64.42 110.21 -143.2 52.36 -76.01 3.84 2.96 -15.55 551.17 193.71 146.01zm977.53 541.89l216.88 -124.06 -111.25 -172.48 -230.02 -402.14 -137 65.8 34.92 80.6 -395.82 226.43 -50.72 -71.58 -135.64 90.15 332.99 582.15 213.4 -108.1 -76.64 -155.96 -70.38 23.5 -87.92 -153.7 116.85 -66.84 145.13 253.71 149.49 -85.51 -146.19 -253.09 111.59 -63.84 79.49 138.96 -51.28 34.92 92.12 161.07z"/>
   <g>
    <path class="fil3" d="M3000.38 4709.66l154.17 0 0.35 -446.56 501.96 118.65c-9.95,-46.39 -295.63,-472.98 -344.6,-567.94l192.84 41.43c-25.99,-60.7 -86.06,-143.41 -122.84,-203.72 -37.28,-61.14 -89.47,-135.75 -121.35,-197.59l146.45 30.08 -335.35 -568.7 -342.83 566.3 147.39 -29.56 -244.04 402.13 192.59 -42.68c-52.98,104.98 -334.67,527.61 -344.23,570.17l519.28 -123.56 0.2 451.56z"/>
    <path class="fil4" d="M4356.99 4276.88c250.73,58.2 422.06,-91.7 451.22,-274.74 29.99,-188.2 -46.22,-263.77 -89.04,-300.47 19.43,-100.64 42.43,-274.93 -132.89,-378.98 14.89,-98 -10.08,-192.59 -125.57,-225.84 -47.8,-29.59 -36.12,-132.03 -165.69,-182.35 -143.97,-55.93 -364.02,20.21 -328.15,319 -147.98,39.41 -238.45,171.08 -149.2,365.49 -146.18,49 -252.71,251.81 -164.13,444.35 60.67,131.88 224.51,269.31 486.79,179.83l0 486.5 155.61 0 0 -469.05c16.28,10.76 35.51,23.25 61.04,36.27z"/>
   </g>
   <path class="fil5" d="M6327.85 2952.4l-217.07 186.81 -195.52 168.25 21.56 18.55 74.04 0 0 63.7 160.56 138.18 -160.56 0 0 87.54 -281.62 242.37 -284.5 244.8 153.54 0 0 555.96 830.87 0 0 -555.96 153.52 0 -284.48 -244.8 -124.99 -107.55 202.61 0 269.05 -231.52 0 -192.71 117.15 0 -217.08 -186.81 -217.09 -186.81zm-162.6 1156.13l-134.56 0 0 134.56 134.56 0 0 -134.56zm0 166.99l-134.56 0 0 134.56 134.56 0 0 -134.56zm-168.51 0l-134.58 0 0 134.56 134.58 0 0 -134.56zm0 -166.99l-134.58 0 0 134.56 134.58 0 0 -134.56zm-493.67 -1086.03l-262.06 225.52 -262.09 225.53 141.43 0 0 512.16 381.9 0 383.53 -330.05 0 -182.12 141.43 0 -262.08 -225.53 -262.07 -225.52zm139.61 456.49l-123.97 0 0 123.97 123.97 0 0 -123.97zm0 153.85l-123.97 0 0 123.97 123.97 0 0 -123.97zm-155.25 0l-123.97 0 0 123.97 123.97 0 0 -123.97zm0 -153.85l-123.97 0 0 123.97 123.97 0 0 -123.97zm1339.28 -49.33l-239.66 206.23 -234.19 201.54 5.47 4.71 118.4 0 0 101.87 243.67 209.69 -240.14 0 0 156.81 696.45 0 0 -468.38 129.35 0 -239.67 -206.25 -239.66 -206.23zm127.66 417.47l-113.37 0 0 113.37 113.37 0 0 -113.37zm0 140.69l-113.37 0 0 113.37 113.37 0 0 -113.37zm-141.96 0l-113.37 0 0 113.37 113.37 0 0 -113.37zm0 -140.69l-113.37 0 0 113.37 113.37 0 0 -113.37zm-368.92 -516.59l-102.67 0 0 102.69 102.67 0 0 -102.69zm0 127.43l-102.67 0 0 102.69 102.67 0 0 -102.69zm-128.59 0l-102.68 0 0 102.69 102.68 0 0 -102.69zm0 -127.43l-102.68 0 0 102.69 102.68 0 0 -102.69z"/>
   <path class="fil5" d="M978.19 2952.4l217.07 186.81 195.52 168.25 -21.56 18.55 -74.04 0 0 63.7 -160.56 138.18 160.56 0 0 87.54 281.62 242.37 284.5 244.8 -153.54 0 0 555.96 -830.87 0 0 -555.96 -153.52 0 284.48 -244.8 124.99 -107.55 -202.61 0 -269.05 -231.52 0 -192.71 -117.15 0 217.08 -186.81 217.09 -186.81zm162.6 1156.13l134.56 0 0 134.56 -134.56 0 0 -134.56zm0 166.99l134.56 0 0 134.56 -134.56 0 0 -134.56zm168.51 0l134.58 0 0 134.56 -134.58 0 0 -134.56zm0 -166.99l134.58 0 0 134.56 -134.58 0 0 -134.56zm493.67 -1086.03l262.06 225.52 262.09 225.53 -141.43 0 0 512.16 -381.9 0 -383.53 -330.05 0 -182.12 -141.43 0 262.08 -225.53 262.07 -225.52zm-139.61 456.49l123.97 0 0 123.97 -123.97 0 0 -123.97zm0 153.85l123.97 0 0 123.97 -123.97 0 0 -123.97zm155.25 0l123.97 0 0 123.97 -123.97 0 0 -123.97zm0 -153.85l123.97 0 0 123.97 -123.97 0 0 -123.97zm-1339.28 -49.33l239.66 206.23 234.19 201.54 -5.47 4.71 -118.4 0 0 101.87 -243.67 209.69 240.14 0 0 156.81 -696.45 0 0 -468.38 -129.35 0 239.67 -206.25 239.66 -206.23zm-127.66 417.47l113.37 0 0 113.37 -113.37 0 0 -113.37zm0 140.69l113.37 0 0 113.37 -113.37 0 0 -113.37zm141.96 0l113.37 0 0 113.37 -113.37 0 0 -113.37zm0 -140.69l113.37 0 0 113.37 -113.37 0 0 -113.37zm368.92 -516.59l102.68 0 0 102.69 -102.68 0 0 -102.69zm0 127.43l102.68 0 0 102.69 -102.68 0 0 -102.69zm128.59 0l102.68 0 0 102.69 -102.68 0 0 -102.69zm0 -127.43l102.68 0 0 102.69 -102.68 0 0 -102.69z"/>
   <path class="fil6" d="M5593.73 4809.38c-91.8,163.94 -203.56,315.19 -332.24,450.22l-3228.85 0c-128.68,-135.04 -240.44,-286.28 -332.24,-450.22l3893.34 0zm-595.81 686.17c-335.81,256.07 -746.41,419.03 -1193.4,450.22l-314.93 0c-447,-31.19 -857.59,-194.15 -1193.4,-450.22l2701.72 0z"/>
  </g>
 </g>
</svg>
